<?xml version="1.0" encoding="UTF-8" standalone="no"?>
<!-- Created with Inkscape (http://www.inkscape.org/) -->
<svg
   xmlns:dc="http://purl.org/dc/elements/1.1/"
   xmlns:cc="http://creativecommons.org/ns#"
   xmlns:rdf="http://www.w3.org/1999/02/22-rdf-syntax-ns#"
   xmlns:svg="http://www.w3.org/2000/svg"
   xmlns="http://www.w3.org/2000/svg"
   xmlns:xlink="http://www.w3.org/1999/xlink"
   xmlns:sodipodi="http://sodipodi.sourceforge.net/DTD/sodipodi-0.dtd"
   xmlns:inkscape="http://www.inkscape.org/namespaces/inkscape"
   height="50.000000px"
   id="svg9493"
   inkscape:export-filename="/datas/Projs/Cliparts Stocker/led/led_rounded_h_green.png"
   inkscape:export-xdpi="90.000000"
   inkscape:export-ydpi="90.000000"
   inkscape:version="0.46"
   sodipodi:docbase="/datas/Projs/Cliparts Stocker/led"
   sodipodi:docname="add_to_cart.svg"
   sodipodi:version="0.32"
   width="100.00000px"
   inkscape:output_extension="org.inkscape.output.svg.inkscape">
  <metadata
     id="metadata3">
    <rdf:RDF>
      <cc:Work
         rdf:about="">
        <dc:title>LED Rounded H (Green)</dc:title>
        <dc:description>jean.victor.balin@gmail.com</dc:description>
        <dc:subject>
          <rdf:Bag>
            <rdf:li>led</rdf:li>
            <rdf:li>shape</rdf:li>
          </rdf:Bag>
        </dc:subject>
        <dc:publisher>
          <cc:Agent
             rdf:about="http://www.openclipart.org/">
            <dc:title>Open Clip Art Library</dc:title>
          </cc:Agent>
        </dc:publisher>
        <dc:creator>
          <cc:Agent>
            <dc:title>Jean-Victor Balin</dc:title>
          </cc:Agent>
        </dc:creator>
        <dc:rights>
          <cc:Agent>
            <dc:title>Jean-Victor Balin</dc:title>
          </cc:Agent>
        </dc:rights>
        <dc:date>2005-08-21</dc:date>
        <dc:format>image/svg+xml</dc:format>
        <dc:type
           rdf:resource="http://purl.org/dc/dcmitype/StillImage" />
        <cc:license
           rdf:resource="http://web.resource.org/cc/PublicDomain" />
        <dc:language>en</dc:language>
      </cc:Work>
      <cc:License
         rdf:about="http://web.resource.org/cc/PublicDomain">
        <cc:permits
           rdf:resource="http://web.resource.org/cc/Reproduction" />
        <cc:permits
           rdf:resource="http://web.resource.org/cc/Distribution" />
        <cc:permits
           rdf:resource="http://web.resource.org/cc/DerivativeWorks" />
      </cc:License>
    </rdf:RDF>
  </metadata>
  <defs
     id="defs9495">
    <radialGradient
       inkscape:collect="always"
       xlink:href="#linearGradient3216"
       id="radialGradient3402"
       gradientUnits="userSpaceOnUse"
       gradientTransform="matrix(1,0,0,1.0265279,53.571429,-12.46395)"
       cx="300.63495"
       cy="462.18982"
       fx="300.63495"
       fy="462.18982"
       r="10.97111" />
    <linearGradient
       inkscape:collect="always"
       id="linearGradient3206">
      <stop
         style="stop-color:#b3b3b3;stop-opacity:1;"
         offset="0"
         id="stop3208" />
      <stop
         style="stop-color:#b3b3b3;stop-opacity:0;"
         offset="1"
         id="stop3210" />
    </linearGradient>
    <radialGradient
       inkscape:collect="always"
       xlink:href="#linearGradient3206"
       id="radialGradient3405"
       gradientUnits="userSpaceOnUse"
       gradientTransform="matrix(1,0,0,1.423301,0,-161.97783)"
       cx="408.53793"
       cy="375.87903"
       fx="408.53793"
       fy="375.87903"
       r="8.046875" />
    <linearGradient
       inkscape:collect="always"
       id="linearGradient3216">
      <stop
         style="stop-color:#b3b3b3;stop-opacity:1;"
         offset="0"
         id="stop3218" />
      <stop
         style="stop-color:#b3b3b3;stop-opacity:0;"
         offset="1"
         id="stop3220" />
    </linearGradient>
    <radialGradient
       inkscape:collect="always"
       xlink:href="#linearGradient3216"
       id="radialGradient3408"
       gradientUnits="userSpaceOnUse"
       gradientTransform="matrix(1,0,0,1.0265279,0,-12.46395)"
       cx="300.63495"
       cy="462.18982"
       fx="300.63495"
       fy="462.18982"
       r="10.97111" />
    <linearGradient
       inkscape:collect="always"
       id="linearGradient3186">
      <stop
         style="stop-color:#cccccc;stop-opacity:1;"
         offset="0"
         id="stop3188" />
      <stop
         style="stop-color:#cccccc;stop-opacity:0;"
         offset="1"
         id="stop3190" />
    </linearGradient>
    <radialGradient
       inkscape:collect="always"
       xlink:href="#linearGradient3186"
       id="radialGradient3412"
       gradientUnits="userSpaceOnUse"
       gradientTransform="matrix(1,0,0,0.5693009,0,177.43456)"
       cx="270.58206"
       cy="378.09262"
       fx="270.58206"
       fy="378.09262"
       r="72.84153" />
    <linearGradient
       inkscape:collect="always"
       id="linearGradient3244">
      <stop
         style="stop-color:#ffffff;stop-opacity:1;"
         offset="0"
         id="stop3246" />
      <stop
         style="stop-color:#ffffff;stop-opacity:0;"
         offset="1"
         id="stop3248" />
    </linearGradient>
    <linearGradient
       inkscape:collect="always"
       xlink:href="#linearGradient3244"
       id="linearGradient3415"
       gradientUnits="userSpaceOnUse"
       x1="277.7323"
       y1="425.51294"
       x2="427.34067"
       y2="425.51294" />
    <inkscape:perspective
       sodipodi:type="inkscape:persp3d"
       inkscape:vp_x="0 : 25 : 1"
       inkscape:vp_y="0 : 1000 : 0"
       inkscape:vp_z="100 : 25 : 1"
       inkscape:persp3d-origin="50 : 16.666667 : 1"
       id="perspective55" />
    <linearGradient
       gradientTransform="matrix(0.928127,0,0,0.639013,17.55634,15.27587)"
       gradientUnits="userSpaceOnUse"
       id="linearGradient13460"
       inkscape:collect="always"
       x1="21.593750"
       x2="21.593750"
       xlink:href="#linearGradient6506"
       y1="47.917328"
       y2="46.774261" />
    <linearGradient
       id="linearGradient6688">
      <stop
         id="stop6690"
         offset="0.0000000"
         style="stop-color:#0f6900;stop-opacity:1.0000000;" />
      <stop
         id="stop6692"
         offset="1.0000000"
         style="stop-color:#a3ff87;stop-opacity:1.0000000;" />
    </linearGradient>
    <linearGradient
       gradientTransform="translate(16,-1.600002)"
       gradientUnits="userSpaceOnUse"
       id="linearGradient13463"
       inkscape:collect="always"
       x1="21.591305"
       x2="21.593750"
       xlink:href="#linearGradient6688"
       y1="46.617390"
       y2="47.781250" />
    <linearGradient
       gradientTransform="translate(16,-1.600002)"
       gradientUnits="userSpaceOnUse"
       id="linearGradient13466"
       inkscape:collect="always"
       x1="21.408695"
       x2="21.834784"
       xlink:href="#linearGradient5756"
       y1="46.556522"
       y2="47.843750" />
    <linearGradient
       gradientTransform="translate(16,-1.600002)"
       gradientUnits="userSpaceOnUse"
       id="linearGradient13469"
       inkscape:collect="always"
       x1="21.594427"
       x2="21.600000"
       xlink:href="#linearGradient5742"
       y1="46.376728"
       y2="48.000000" />
    <linearGradient
       gradientTransform="matrix(0.928127,0.000000,0.000000,0.639013,21.55634,15.27587)"
       gradientUnits="userSpaceOnUse"
       id="linearGradient13472"
       inkscape:collect="always"
       x1="21.593750"
       x2="21.593750"
       xlink:href="#linearGradient6506"
       y1="47.917328"
       y2="46.774261" />
    <linearGradient
       gradientTransform="translate(20.00000,-1.600002)"
       gradientUnits="userSpaceOnUse"
       id="linearGradient13475"
       inkscape:collect="always"
       x1="21.591305"
       x2="21.593750"
       xlink:href="#linearGradient9163"
       y1="46.617390"
       y2="47.781250" />
    <linearGradient
       gradientTransform="translate(20.00000,-1.600002)"
       gradientUnits="userSpaceOnUse"
       id="linearGradient13478"
       inkscape:collect="always"
       x1="21.408695"
       x2="21.834784"
       xlink:href="#linearGradient5756"
       y1="46.556522"
       y2="47.843750" />
    <linearGradient
       gradientTransform="translate(20.00000,-1.600002)"
       gradientUnits="userSpaceOnUse"
       id="linearGradient13481"
       inkscape:collect="always"
       x1="21.594427"
       x2="21.600000"
       xlink:href="#linearGradient5742"
       y1="46.376728"
       y2="48.000000" />
    <linearGradient
       gradientUnits="userSpaceOnUse"
       id="linearGradient9199"
       inkscape:collect="always"
       x1="23.402565"
       x2="23.389874"
       xlink:href="#linearGradient6506"
       y1="44.066776"
       y2="42.883698" />
    <linearGradient
       id="linearGradient9163">
      <stop
         id="stop9165"
         offset="0.0000000"
         style="stop-color:#000000;stop-opacity:1.0000000;" />
      <stop
         id="stop9167"
         offset="1.0000000"
         style="stop-color:#8c8c8c;stop-opacity:1.0000000;" />
    </linearGradient>
    <linearGradient
       gradientUnits="userSpaceOnUse"
       id="linearGradient9197"
       inkscape:collect="always"
       x1="23.213980"
       x2="23.201290"
       xlink:href="#linearGradient9163"
       y1="42.754631"
       y2="43.892632" />
    <linearGradient
       gradientUnits="userSpaceOnUse"
       id="linearGradient9195"
       inkscape:collect="always"
       x1="23.349695"
       x2="23.440580"
       xlink:href="#linearGradient5756"
       y1="42.767944"
       y2="43.710873" />
    <linearGradient
       gradientUnits="userSpaceOnUse"
       id="linearGradient9193"
       inkscape:collect="always"
       x1="23.193102"
       x2="23.200001"
       xlink:href="#linearGradient5742"
       y1="42.429230"
       y2="44.000000" />
    <linearGradient
       id="linearGradient6506">
      <stop
         id="stop6508"
         offset="0.0000000"
         style="stop-color:#ffffff;stop-opacity:0.0000000;" />
      <stop
         id="stop6510"
         offset="1.0000000"
         style="stop-color:#ffffff;stop-opacity:0.87450981;" />
    </linearGradient>
    <linearGradient
       gradientUnits="userSpaceOnUse"
       id="linearGradient7498"
       inkscape:collect="always"
       x1="23.402565"
       x2="23.389874"
       xlink:href="#linearGradient6506"
       y1="44.066776"
       y2="42.883698" />
    <linearGradient
       id="linearGradient7464">
      <stop
         id="stop7466"
         offset="0.0000000"
         style="stop-color:#00039a;stop-opacity:1.0000000;" />
      <stop
         id="stop7468"
         offset="1.0000000"
         style="stop-color:#afa5ff;stop-opacity:1.0000000;" />
    </linearGradient>
    <linearGradient
       gradientUnits="userSpaceOnUse"
       id="linearGradient7496"
       inkscape:collect="always"
       x1="23.213980"
       x2="23.201290"
       xlink:href="#linearGradient7464"
       y1="42.754631"
       y2="43.892632" />
    <linearGradient
       id="linearGradient5756">
      <stop
         id="stop5758"
         offset="0.0000000"
         style="stop-color:#828282;stop-opacity:1.0000000;" />
      <stop
         id="stop5760"
         offset="1.0000000"
         style="stop-color:#929292;stop-opacity:0.35294119;" />
    </linearGradient>
    <linearGradient
       gradientUnits="userSpaceOnUse"
       id="linearGradient9321"
       inkscape:collect="always"
       x1="22.935030"
       x2="23.662106"
       xlink:href="#linearGradient5756"
       y1="42.699776"
       y2="43.892632" />
    <linearGradient
       id="linearGradient5742">
      <stop
         id="stop5744"
         offset="0.0000000"
         style="stop-color:#adadad;stop-opacity:1.0000000;" />
      <stop
         id="stop5746"
         offset="1.0000000"
         style="stop-color:#f0f0f0;stop-opacity:1.0000000;" />
    </linearGradient>
    <linearGradient
       gradientUnits="userSpaceOnUse"
       id="linearGradient7492"
       inkscape:collect="always"
       x1="23.193102"
       x2="23.200001"
       xlink:href="#linearGradient5742"
       y1="42.429230"
       y2="44.000000" />
    <linearGradient
       gradientUnits="userSpaceOnUse"
       id="linearGradient9527"
       inkscape:collect="always"
       x1="23.193102"
       x2="23.200001"
       xlink:href="#linearGradient5742"
       y1="42.429230"
       y2="44.000000" />
    <linearGradient
       gradientUnits="userSpaceOnUse"
       id="linearGradient9529"
       inkscape:collect="always"
       x1="22.935030"
       x2="23.662106"
       xlink:href="#linearGradient5756"
       y1="42.699776"
       y2="43.892632" />
    <linearGradient
       gradientUnits="userSpaceOnUse"
       id="linearGradient9531"
       inkscape:collect="always"
       x1="23.213980"
       x2="23.201290"
       xlink:href="#linearGradient7464"
       y1="42.754631"
       y2="43.892632" />
    <linearGradient
       gradientUnits="userSpaceOnUse"
       id="linearGradient9533"
       inkscape:collect="always"
       x1="23.402565"
       x2="23.389874"
       xlink:href="#linearGradient6506"
       y1="44.066776"
       y2="42.883698" />
    <linearGradient
       gradientTransform="matrix(24.16238,0.000000,0.000000,18.68556,-538.2464,-790.0391)"
       gradientUnits="userSpaceOnUse"
       id="linearGradient1336"
       inkscape:collect="always"
       x1="23.402565"
       x2="23.389874"
       xlink:href="#linearGradient6506"
       y1="44.066776"
       y2="42.883698" />
    <linearGradient
       gradientTransform="matrix(30.28350,0.000000,0.000000,30.28350,-680.9062,-1286.161)"
       gradientUnits="userSpaceOnUse"
       id="linearGradient1339"
       inkscape:collect="always"
       x1="23.213980"
       x2="23.201290"
       xlink:href="#linearGradient9163"
       y1="42.754631"
       y2="43.892632" />
    <linearGradient
       gradientTransform="matrix(33.82731,0.000000,0.000000,33.82731,-763.5122,-1439.594)"
       gradientUnits="userSpaceOnUse"
       id="linearGradient1342"
       inkscape:collect="always"
       x1="23.349695"
       x2="23.440580"
       xlink:href="#linearGradient5756"
       y1="42.767944"
       y2="43.710873" />
    <linearGradient
       gradientTransform="matrix(31.25000,0.000000,0.000000,31.25000,-700.0000,-1325.000)"
       gradientUnits="userSpaceOnUse"
       id="linearGradient1345"
       inkscape:collect="always"
       x1="23.193102"
       x2="23.200001"
       xlink:href="#linearGradient5742"
       y1="42.429230"
       y2="44.000000" />
    <linearGradient
       inkscape:collect="always"
       xlink:href="#linearGradient3244"
       id="linearGradient2665"
       gradientUnits="userSpaceOnUse"
       x1="277.7323"
       y1="425.51294"
       x2="427.34067"
       y2="425.51294" />
    <radialGradient
       inkscape:collect="always"
       xlink:href="#linearGradient3186"
       id="radialGradient2667"
       gradientUnits="userSpaceOnUse"
       gradientTransform="matrix(1,0,0,0.5693009,0,177.43456)"
       cx="270.58206"
       cy="378.09262"
       fx="270.58206"
       fy="378.09262"
       r="72.84153" />
    <radialGradient
       inkscape:collect="always"
       xlink:href="#linearGradient3216"
       id="radialGradient2669"
       gradientUnits="userSpaceOnUse"
       gradientTransform="matrix(1,0,0,1.0265279,0,-12.46395)"
       cx="300.63495"
       cy="462.18982"
       fx="300.63495"
       fy="462.18982"
       r="10.97111" />
    <radialGradient
       inkscape:collect="always"
       xlink:href="#linearGradient3206"
       id="radialGradient2671"
       gradientUnits="userSpaceOnUse"
       gradientTransform="matrix(1,0,0,1.423301,0,-161.97783)"
       cx="408.53793"
       cy="375.87903"
       fx="408.53793"
       fy="375.87903"
       r="8.046875" />
    <radialGradient
       inkscape:collect="always"
       xlink:href="#linearGradient3216"
       id="radialGradient2673"
       gradientUnits="userSpaceOnUse"
       gradientTransform="matrix(1,0,0,1.0265279,53.571429,-12.46395)"
       cx="300.63495"
       cy="462.18982"
       fx="300.63495"
       fy="462.18982"
       r="10.97111" />
  </defs>
  <sodipodi:namedview
     bordercolor="#666666"
     borderopacity="1.0"
     id="base"
     inkscape:current-layer="layer1"
     inkscape:cx="42.872199"
     inkscape:cy="20.698925"
     inkscape:document-units="px"
     inkscape:pageopacity="0.0"
     inkscape:pageshadow="2"
     inkscape:window-height="693"
     inkscape:window-width="1024"
     inkscape:window-x="107"
     inkscape:window-y="54"
     inkscape:zoom="9.3"
     pagecolor="#ffffff"
     showgrid="false" />
  <g
     id="add-to-cart-button">
    <g
       id="layer1"
       inkscape:groupmode="layer"
       inkscape:label="Calque 1">
      <g
         id="g13537"
         style="overflow:visible"
         transform="matrix(31.25,0,0,23.4375,-1125,-1043.75)"
         inkscape:export-filename="/home/bitlooter/Desktop/12-29-2009-clean-up/feezix-labs/add_to_cart.png"
         inkscape:export-xdpi="90"
         inkscape:export-ydpi="90">
        <path
           d="M 36.799998,44.8 L 38.399998,44.8 C 38.843198,44.8 39.199998,45.1568 39.199998,45.6 C 39.199998,46.0432 38.843198,46.4 38.399998,46.4 L 36.799998,46.4 C 36.356798,46.4 35.999998,46.0432 35.999998,45.6 C 35.999998,45.1568 36.356798,44.8 36.799998,44.8 z"
           id="path13353"
           style="fill:url(#linearGradient13469);fill-opacity:1;stroke:none;stroke-width:0.80000001;stroke-linecap:round;stroke-linejoin:round;stroke-miterlimit:4;stroke-opacity:1" />
        <path
           d="M 36.812498,44.962498 C 36.447387,44.962498 36.156248,45.229606 36.156248,45.587498 C 36.156248,45.94539 36.454607,46.24375 36.812498,46.243748 L 38.406248,46.243748 C 38.764141,46.243748 39.031248,45.952611 39.031248,45.587498 C 39.031248,45.222387 38.771358,44.962498 38.406248,44.962498 L 36.812498,44.962498 z"
           id="path13355"
           style="fill:url(#linearGradient13466);fill-opacity:1;stroke:none;stroke-width:0.80000001;stroke-linecap:round;stroke-linejoin:round;stroke-miterlimit:4;stroke-opacity:1;overflow:visible" />
        <path
           d="M 36.812498,45.024998 C 36.485887,45.024998 36.218748,45.271665 36.218748,45.587498 C 36.218748,45.903332 36.496667,46.181249 36.812498,46.181248 L 38.406248,46.181248 C 38.722082,46.181248 38.968748,45.914111 38.968748,45.587498 C 38.968748,45.260887 38.732858,45.024998 38.406248,45.024998 L 36.812498,45.024998 z"
           id="path13357"
           style="fill:url(#linearGradient13463);fill-opacity:1;stroke:none;stroke-width:0.80000001;stroke-linecap:round;stroke-linejoin:round;stroke-miterlimit:4;stroke-opacity:1;overflow:visible" />
        <path
           d="M 36.872983,45.069849 C 36.569847,45.069849 36.321908,45.227473 36.321908,45.429294 C 36.321908,45.631116 36.579852,45.808709 36.872983,45.808708 L 38.352185,45.808708 C 38.64532,45.808708 38.874257,45.638004 38.874257,45.429294 C 38.874257,45.220585 38.655321,45.069849 38.352185,45.069849 L 36.872983,45.069849 z"
           id="path13359"
           style="fill:url(#linearGradient13460);fill-opacity:1;stroke:none;stroke-width:0.80000001;stroke-linecap:round;stroke-linejoin:round;stroke-miterlimit:4;stroke-opacity:1;overflow:visible" />
      </g>
      <g
         id="g3488"
         transform="matrix(0.164175,0,0,0.1307693,-37.124989,-30.375214)"
         inkscape:export-filename="/home/brandon/Desktop/list.png"
         inkscape:export-xdpi="89.997635"
         inkscape:export-ydpi="89.997635">
        <path
           style="fill:#4d4d4d;fill-opacity:1;fill-rule:nonzero;stroke:url(#linearGradient2665);stroke-width:2;stroke-linecap:round;stroke-linejoin:miter;marker:none;marker-start:none;marker-mid:none;marker-end:none;stroke-miterlimit:4;stroke-dasharray:none;stroke-dashoffset:0;stroke-opacity:1;visibility:visible;display:inline;overflow:visible;enable-background:accumulate"
           d="M 413.01639,368.49129 C 411.75829,368.48998 410.46298,369.17585 409.36115,371.24677 L 401.40399,390.87257 C 401.30871,390.86656 401.21966,390.84446 401.12282,390.84446 L 283.14307,390.84446 C 282.08274,390.89154 281.02676,390.83811 279.96583,390.90069 C 278.6876,391.28367 277.9485,392.63205 278.33503,393.90923 C 278.69637,395.33894 278.82077,396.67603 279.57219,397.98622 L 296.18945,452.8991 C 296.0874,454.81012 295.94267,456.21692 298.01707,456.21693 L 298.49506,456.21693 C 298.83061,456.29065 299.18112,456.26847 299.5354,456.18881 L 381.18773,455.3453 C 382.13888,455.3453 382.2275,455.17977 381.97501,454.83919 C 382.60855,454.63915 383.17089,454.20146 383.46522,453.5458 L 409.41739,395.73685 C 409.52183,395.50418 409.55825,395.24557 409.58609,395.0058 L 415.6594,381.48143 L 421.14226,387.27357 C 421.68872,388.4909 423.10065,389.02568 424.3195,388.48261 C 425.53835,387.93951 427.28404,381.88338 426.73758,380.66603 C 422.80088,377.57775 420.68318,372.11562 416.3061,369.72844 C 415.38363,369.13624 414.2302,368.49254 413.01639,368.49129 z M 290.22861,399.78572 L 396.96147,399.78572 L 392.01284,412.0167 C 391.43925,411.74953 390.80566,411.59494 390.12899,411.59494 L 293.3215,411.59494 L 290.22861,399.78572 z M 295.68334,420.50809 L 388.55443,420.50809 L 384.92731,429.44936 L 298.04518,429.44936 L 295.68334,420.50809 z M 300.37891,438.36251 L 381.18773,438.36251 C 381.22523,438.36251 381.28861,438.36342 381.32831,438.36251 L 377.84178,446.91014 C 377.79792,447.00785 377.80137,447.14887 377.78555,447.30378 L 302.74076,447.30378 L 300.37891,438.36251 z M 311.76638,457.51032 C 305.03318,457.51032 299.56351,463.11325 299.56351,470.02247 C 299.56351,476.93168 305.03319,482.53463 311.76638,482.53462 C 318.49955,482.53462 323.94112,476.93168 323.94112,470.02247 C 323.94112,463.11326 318.49956,457.51033 311.76638,457.51032 z M 365.32963,457.51032 C 358.59646,457.51032 353.12676,463.11325 353.12677,470.02247 C 353.12677,476.93168 358.59645,482.53463 365.32963,482.53462 C 372.06282,482.53462 377.5325,476.93168 377.53249,470.02247 C 377.53249,463.11326 372.06281,457.51033 365.32963,457.51032 z"
           id="rect3280"
           sodipodi:nodetypes="cccccccccccccccccccsccccccccccccccccccccccsssccsssc" />
        <path
           style="fill:url(#radialGradient2667);fill-opacity:1;fill-rule:nonzero;stroke:none;stroke-width:1;stroke-linecap:round;stroke-linejoin:miter;marker:none;marker-start:none;marker-mid:none;marker-end:none;stroke-miterlimit:4;stroke-dasharray:1, 3;stroke-dashoffset:0;stroke-opacity:1;visibility:visible;display:inline;overflow:visible;enable-background:accumulate"
           d="M 413.03125,370.5 C 411.77315,370.49868 410.47683,373.17908 409.375,375.25 L 408.3125,378.1875 C 410.61719,378.70158 412.86029,379.34607 415.03125,380.125 L 415.15625,379.875 L 415.5625,380.34375 C 418.92891,381.59244 422.12069,383.14437 425.09375,385.03125 C 425.71232,383.46486 426.13509,381.56238 425.8125,380.84375 L 419.21875,374.40625 C 419.08864,373.79201 418.71166,373.22898 418.15625,372.875 C 417.55733,372.22031 416.9452,371.87131 416.3125,371.71875 C 415.39004,371.12654 414.24506,370.50125 413.03125,370.5 z M 344.96875,392.71875 L 283.15625,392.84375 C 282.96996,392.84376 282.77392,392.8843 282.59375,392.90625 C 280.62231,392.53124 281.02854,393.08588 280.34375,393.90625 C 280.70446,395.33832 280.89151,396.6539 281.5625,398 L 298.1875,450.90625 C 298.13112,451.96201 298.07605,452.84172 298.375,453.4375 C 299.35403,450.22872 300.49819,447.02444 301.84375,443.84375 L 300.375,438.375 L 304.34375,438.375 C 305.82634,435.36561 307.45324,432.3644 309.25,429.4375 L 298.03125,429.4375 L 295.6875,420.5 L 315.375,420.5 C 317.67378,417.44544 320.14181,414.4639 322.78125,411.59375 L 293.3125,411.59375 L 290.21875,399.78125 L 335.34375,399.78125 C 337.28188,398.20835 339.28782,396.67991 341.34375,395.21875 C 342.55557,394.3575 343.74613,393.51919 344.96875,392.71875 z"
           id="path2409"
           sodipodi:nodetypes="ccccccccccccccccccccccccccccccsc" />
        <path
           style="opacity:0.5;fill:#333333;fill-opacity:1;fill-rule:nonzero;stroke:none;stroke-width:1;stroke-linecap:round;stroke-linejoin:miter;marker:none;marker-start:none;marker-mid:none;marker-end:none;stroke-miterlimit:4;stroke-dasharray:1, 3;stroke-dashoffset:0;stroke-opacity:1;visibility:visible;display:inline;overflow:visible;enable-background:accumulate"
           d="M 416.16323,378.67089 C 413.56836,378.8104 411.89271,381.84582 409.94765,384.53431 C 406.5873,389.17902 393.07528,426.66072 385.93242,430.94643 C 379.7842,434.63536 385.16665,433.33082 374.74492,438.35268 L 380.68242,438.35268 C 380.71992,438.35268 380.79897,438.35359 380.83867,438.35268 L 377.33867,446.91518 C 377.29481,447.01292 377.29199,447.13527 377.27617,447.29018 L 352.74492,447.29018 C 339.85069,451.40684 328.7717,453.07143 324.15117,453.07143 C 322.59828,453.07142 320.17321,453.44999 317.40117,454.00893 L 378.68242,453.35268 C 379.63357,453.35269 379.71616,453.19326 379.46367,452.85268 C 380.09721,452.65264 380.66934,452.19584 380.96367,451.54018 L 406.90117,395.72768 C 407.00561,395.49502 407.37333,395.15495 407.40117,394.91518 L 415.59819,380.26274 L 421.2519,386.25893 C 421.79835,387.47626 422.6268,388.40146 423.84565,387.85839 C 424.7011,387.47722 425.4913,384.9974 425.8125,383.17026 C 425.76735,383.01328 425.79578,382.90192 425.875,382.79526 C 425.91901,382.45857 426.3008,382.21175 426.28505,381.95214 C 425.81324,381.58177 423.78867,380.46607 421.27617,379.50893 C 418.46367,378.4375 417.72015,378.58718 416.16323,378.67089 z"
           id="path2411"
           sodipodi:nodetypes="cssccccccsccccccccscccsc" />
        <path
           style="fill:url(#radialGradient2669);fill-opacity:1;fill-rule:nonzero;stroke:none;stroke-width:1;stroke-linecap:round;stroke-linejoin:miter;marker:none;marker-start:none;marker-mid:none;marker-end:none;stroke-miterlimit:4;stroke-dasharray:1, 3;stroke-dashoffset:0;stroke-opacity:1;visibility:visible;display:inline;overflow:visible;enable-background:accumulate"
           d="M 311.625,458.59375 C 305.56446,458.59374 300.625,463.62478 300.625,469.84375 C 300.62499,474.73825 303.68408,478.88494 307.9375,480.4375 C 306.06909,478.41848 304.90625,475.68938 304.90625,472.6875 C 304.90625,466.46853 309.84571,461.43749 315.90625,461.4375 C 317.19282,461.4375 318.41645,461.6762 319.5625,462.09375 C 317.56694,459.93281 314.75779,458.59376 311.625,458.59375 z"
           id="path3196" />
        <path
           style="fill:url(#radialGradient2671);fill-opacity:1;fill-rule:nonzero;stroke:none;stroke-width:1;stroke-linecap:round;stroke-linejoin:miter;marker:none;marker-start:none;marker-mid:none;marker-end:none;stroke-miterlimit:4;stroke-dasharray:1, 3;stroke-dashoffset:0;stroke-opacity:1;visibility:visible;display:inline;overflow:visible;enable-background:accumulate"
           d="M 413.00446,371.20089 C 411.74636,371.19959 410.45004,373.87997 409.34821,375.95089 L 403.34821,392.45089 C 403.84132,392.93115 404.27373,393.49259 404.59821,394.10714 C 406.00381,384.07022 412.01611,376.3216 419.44196,375.32589 L 419.22321,375.10714 C 419.0931,374.4929 418.71612,373.96112 418.16071,373.60714 C 417.56178,372.95245 416.94966,372.60345 416.31696,372.45089 C 415.39449,371.8587 414.21827,371.20214 413.00446,371.20089 z"
           id="path3198" />
        <path
           id="path3229"
           d="M 365.19643,458.59375 C 359.13589,458.59374 354.19643,463.62478 354.19643,469.84375 C 354.19642,474.73825 357.25551,478.88494 361.50893,480.4375 C 359.64052,478.41848 358.47768,475.68938 358.47768,472.6875 C 358.47768,466.46853 363.41714,461.43749 369.47768,461.4375 C 370.76425,461.4375 371.98788,461.6762 373.13393,462.09375 C 371.13837,459.93281 368.32922,458.59376 365.19643,458.59375 z"
           style="fill:url(#radialGradient2673);fill-opacity:1;fill-rule:nonzero;stroke:none;stroke-width:1;stroke-linecap:round;stroke-linejoin:miter;marker:none;marker-start:none;marker-mid:none;marker-end:none;stroke-miterlimit:4;stroke-dasharray:1, 3;stroke-dashoffset:0;stroke-opacity:1;visibility:visible;display:inline;overflow:visible;enable-background:accumulate" />
      </g>
      <text
         xml:space="preserve"
         style="font-size:12.17806910999999914px;font-style:normal;font-variant:normal;font-weight:bold;font-stretch:normal;fill:#000000;fill-opacity:1;stroke:none;stroke-width:1px;stroke-linecap:butt;stroke-linejoin:miter;stroke-opacity:1;font-family:DejaVu Sans Mono;-inkscape-font-specification:DejaVu Sans Mono Bold"
         x="47.304493"
         y="22.260986"
         id="text2679"
         transform="scale(0.6765594,1.4780669)"><tspan
           sodipodi:role="line"
           id="tspan2681"
           x="47.304493"
           y="22.260986">ADD TO CART</tspan></text>
    </g>
  </g>
</svg>
