<?xml version="1.0" encoding="UTF-8" standalone="no"?>
<!-- Created with Inkscape (http://www.inkscape.org/) -->
<svg
   xmlns:dc="http://purl.org/dc/elements/1.1/"
   xmlns:cc="http://creativecommons.org/ns#"
   xmlns:rdf="http://www.w3.org/1999/02/22-rdf-syntax-ns#"
   xmlns:svg="http://www.w3.org/2000/svg"
   xmlns="http://www.w3.org/2000/svg"
   xmlns:xlink="http://www.w3.org/1999/xlink"
   xmlns:sodipodi="http://sodipodi.sourceforge.net/DTD/sodipodi-0.dtd"
   xmlns:inkscape="http://www.inkscape.org/namespaces/inkscape"
   width="8.5in"
   height="11in"
   id="svg2342"
   sodipodi:version="0.32"
   inkscape:version="0.46"
   sodipodi:docbase=""
   sodipodi:docname="notepad-notebook-linux.svg"
   inkscape:output_extension="org.inkscape.output.svg.inkscape">
  <metadata
     id="metadata2538" />
  <defs
     id="defs2536">
    <inkscape:perspective
       sodipodi:type="inkscape:persp3d"
       inkscape:vp_x="0 : 495 : 1"
       inkscape:vp_y="0 : 1000 : 0"
       inkscape:vp_z="1 : 495 : 1"
       inkscape:persp3d-origin="0.5 : 330 : 1"
       id="perspective2676" />
    <defs
       id="defs2344">
      <linearGradient
         gradientTransform="translate(38.177125,-112.89828)"
         gradientUnits="userSpaceOnUse"
         y2="98.256592"
         x2="33.005116"
         y1="98.256592"
         x1="27.101698"
         id="linearGradient4798"
         xlink:href="#linearGradient4768"
         inkscape:collect="always" />
      <linearGradient
         id="linearGradient4768">
        <stop
           id="stop4770"
           offset="0"
           style="stop-color:#ffffff;stop-opacity:1;" />
        <stop
           id="stop4772"
           offset="1"
           style="stop-color:#000000;stop-opacity:0.72164947;" />
      </linearGradient>
      <linearGradient
         id="linearGradient3352">
        <stop
           id="stop3354"
           offset="0"
           style="stop-color:#008b00;stop-opacity:1;" />
        <stop
           id="stop3356"
           offset="1"
           style="stop-color:#008b00;stop-opacity:0;" />
      </linearGradient>
      <linearGradient
         y2="89.607506"
         x2="66.217232"
         y1="36.927540"
         x1="27.547546"
         gradientTransform="matrix(1.767768,0,0,0.565685,0.171873,-0.341795)"
         gradientUnits="userSpaceOnUse"
         id="linearGradient1733"
         xlink:href="#linearGradient1702"
         inkscape:collect="always" />
      <linearGradient
         gradientUnits="userSpaceOnUse"
         y2="101.91216"
         x2="47.396175"
         y1="50.615810"
         x1="30.828516"
         gradientTransform="scale(1.862266,0.53698)"
         id="linearGradient1727"
         xlink:href="#linearGradient1702"
         inkscape:collect="always" />
      <linearGradient
         gradientUnits="userSpaceOnUse"
         y2="68.826477"
         x2="65.615074"
         y1="47.834839"
         x1="52.223404"
         gradientTransform="scale(1.361491,0.734489)"
         id="linearGradient1720"
         xlink:href="#linearGradient1716"
         inkscape:collect="always" />
      <linearGradient
         id="linearGradient1706">
        <stop
           id="stop1707"
           offset="0.0000000"
           style="stop-color:#6798be;stop-opacity:1.0000000;" />
        <stop
           id="stop1708"
           offset="1.0000000"
           style="stop-color:#395b75;stop-opacity:1.0000000;" />
      </linearGradient>
      <linearGradient
         y2="135.12976"
         x2="71.181053"
         y1="110.93384"
         x1="52.528103"
         gradientTransform="scale(1.184565,0.844192)"
         gradientUnits="userSpaceOnUse"
         id="linearGradient2383"
         xlink:href="#linearGradient1706"
         inkscape:collect="always" />
      <linearGradient
         gradientUnits="userSpaceOnUse"
         y2="65.707832"
         x2="116.18282"
         y1="23.324606"
         x1="88.756485"
         gradientTransform="scale(0.98221,1.018112)"
         id="linearGradient1713"
         xlink:href="#linearGradient1716"
         inkscape:collect="always" />
      <linearGradient
         id="linearGradient1716">
        <stop
           id="stop1717"
           offset="0.0000000"
           style="stop-color:#f0f0f0;stop-opacity:1.0000000;" />
        <stop
           id="stop1718"
           offset="1.0000000"
           style="stop-color:#99afc1;stop-opacity:1.0000000;" />
      </linearGradient>
      <linearGradient
         gradientUnits="userSpaceOnUse"
         y2="38.080837"
         x2="107.40260"
         y1="17.405802"
         x1="53.542870"
         gradientTransform="matrix(0.880518,0,0,0.763574,-3.185381,9.185675)"
         id="linearGradient1719"
         xlink:href="#linearGradient1716"
         inkscape:collect="always" />
      <linearGradient
         gradientUnits="userSpaceOnUse"
         y2="27.065115"
         x2="20.704876"
         y1="65.760132"
         x1="55.313805"
         gradientTransform="scale(1.829404,0.546626)"
         id="linearGradient1739"
         xlink:href="#linearGradient1702"
         inkscape:collect="always" />
      <linearGradient
         y2="64.117157"
         x2="82.559830"
         y1="64.117157"
         x1="10.054123"
         gradientTransform="scale(1.767767,0.565685)"
         gradientUnits="userSpaceOnUse"
         id="linearGradient1715"
         xlink:href="#linearGradient1740"
         inkscape:collect="always" />
      <linearGradient
         id="linearGradient1702">
        <stop
           id="stop1703"
           offset="0.0000000"
           style="stop-color:#f0f0f0;stop-opacity:1.0000000;" />
        <stop
           id="stop1704"
           offset="1.0000000"
           style="stop-color:#c1c1c1;stop-opacity:1.0000000;" />
      </linearGradient>
      <linearGradient
         y2="97.678497"
         x2="130.30769"
         y1="97.678497"
         x1="34.132172"
         gradientTransform="scale(1.069207,0.935273)"
         gradientUnits="userSpaceOnUse"
         id="linearGradient1714"
         xlink:href="#linearGradient1702"
         inkscape:collect="always" />
      <linearGradient
         id="linearGradient1740">
        <stop
           id="stop1741"
           offset="0.0000000"
           style="stop-color:#ff7800;stop-opacity:1.0000000;" />
        <stop
           id="stop1742"
           offset="1.0000000"
           style="stop-color:#ffba00;stop-opacity:1.0000000;" />
      </linearGradient>
      <linearGradient
         gradientUnits="userSpaceOnUse"
         y2="64.117157"
         x2="82.559830"
         y1="64.117157"
         x1="10.054123"
         gradientTransform="scale(1.767767,0.565685)"
         id="linearGradient1722"
         xlink:href="#linearGradient1740"
         inkscape:collect="always" />
      <inkscape:perspective
         id="perspective2534"
         inkscape:persp3d-origin="0.5 : 330 : 1"
         inkscape:vp_z="1 : 495 : 1"
         inkscape:vp_y="0 : 1000 : 0"
         inkscape:vp_x="0 : 495 : 1"
         sodipodi:type="inkscape:persp3d" />
      <linearGradient
         gradientUnits="userSpaceOnUse"
         y2="42.729736"
         x2="493.64581"
         y1="42.729736"
         x1="230.4382"
         id="linearGradient3574"
         xlink:href="#linearGradient3352"
         inkscape:collect="always" />
    </defs>
    <sodipodi:namedview
       showgrid="false"
       inkscape:window-y="24"
       inkscape:window-x="0"
       inkscape:window-height="727"
       inkscape:window-width="1280"
       id="namedview2346"
       inkscape:current-layer="layer1"
       inkscape:cy="925.56248"
       inkscape:cx="959.05581"
       inkscape:zoom="0.5091169"
       inkscape:pageshadow="2"
       inkscape:pageopacity="0.0"
       borderopacity="1.0"
       bordercolor="#666666"
       pagecolor="#ffffff"
       inkscape:document-units="in" />
    <metadata
       id="metadata2348">
      <rdf:RDF>
        <cc:Work
           rdf:about="">
          <dc:format>image/svg+xml</dc:format>
          <dc:type
             rdf:resource="http://purl.org/dc/dcmitype/StillImage" />
        </cc:Work>
        <cc:Work
           rdf:about="">
          <dc:format>image/svg+xml</dc:format>
          <dc:type
             rdf:resource="http://purl.org/dc/dcmitype/StillImage" />
        </cc:Work>
      </rdf:RDF>
    </metadata>
    <rect
       fill="#bf0a30"
       height="50"
       width="1235"
       id="stripe" />
    <g
       id="union">
      <use
         id="use2325"
         y="-0.216"
         xlink:href="#x4" />
      <use
         id="use2327"
         xlink:href="#x4" />
      <use
         id="use2329"
         y="0.216"
         xlink:href="#s6" />
    </g>
    <g
       id="x4">
      <use
         id="use2316"
         xlink:href="#s6" />
      <use
         id="use2318"
         y="0.054"
         xlink:href="#s5" />
      <use
         id="use2320"
         y="0.108"
         xlink:href="#s6" />
      <use
         id="use2322"
         y="0.162"
         xlink:href="#s5" />
    </g>
    <g
       id="s6">
      <use
         id="use2311"
         x="-0.063"
         xlink:href="#s5" />
      <use
         id="use2313"
         x="0.315"
         xlink:href="#star" />
    </g>
    <g
       id="s5">
      <use
         id="use2300"
         x="-0.252"
         xlink:href="#star" />
      <use
         id="use2302"
         x="-0.126"
         xlink:href="#star" />
      <use
         id="use2304"
         xlink:href="#star" />
      <use
         id="use2306"
         x="0.126"
         xlink:href="#star" />
      <use
         id="use2308"
         x="0.252"
         xlink:href="#star" />
    </g>
    <g
       id="star">
      <use
         id="use2289"
         transform="rotate(-144)"
         xlink:href="#pt" />
      <use
         id="use2291"
         transform="rotate(-72)"
         xlink:href="#pt" />
      <use
         id="use2293"
         xlink:href="#pt" />
      <use
         id="use2295"
         transform="rotate(72)"
         xlink:href="#pt" />
      <use
         id="use2297"
         transform="rotate(144)"
         xlink:href="#pt" />
    </g>
    <polygon
       fill="white"
       transform="scale(0.0616)"
       points="-0.1624598481164531,0 0,-0.5 0.1624598481164531,0"
       id="pt" />
    <inkscape:perspective
       id="perspective3292"
       inkscape:persp3d-origin="154.375 : 54.166667 : 1"
       inkscape:vp_z="308.75 : 81.25 : 1"
       inkscape:vp_y="0 : 1000 : 0"
       inkscape:vp_x="0 : 81.25 : 1"
       sodipodi:type="inkscape:persp3d" />
    <linearGradient
       gradientTransform="scale(1.221941,0.81837)"
       y2="482.55939"
       x2="288.37628"
       y1="398.85422"
       x1="288.82358"
       gradientUnits="userSpaceOnUse"
       id="linearGradient1439"
       xlink:href="#linearGradient167" />
    <linearGradient
       gradientTransform="scale(1.218684,0.820557)"
       y2="485.69934"
       x2="285.45923"
       y1="410.46326"
       x1="284.68652"
       gradientUnits="userSpaceOnUse"
       id="linearGradient1437"
       xlink:href="#linearGradient162" />
    <linearGradient
       gradientTransform="scale(1.065499,0.938527)"
       y2="582.63507"
       x2="371.60889"
       y1="474.01779"
       x1="316.93988"
       gradientUnits="userSpaceOnUse"
       id="linearGradient1435"
       xlink:href="#linearGradient167" />
    <linearGradient
       gradientTransform="scale(0.999504,1.000496)"
       y2="710.97723"
       x2="230.53499"
       y1="570.41809"
       x1="223.10072"
       gradientUnits="userSpaceOnUse"
       id="linearGradient1433"
       xlink:href="#linearGradient167" />
    <linearGradient
       y2="704.73077"
       x2="182.24524"
       y1="587.23602"
       x1="117.88966"
       gradientTransform="scale(1.007724,0.992335)"
       gradientUnits="userSpaceOnUse"
       id="linearGradient1431"
       xlink:href="#linearGradient167" />
    <linearGradient
       gradientTransform="scale(1.009851,0.990245)"
       y2="737.8537"
       x2="203.12654"
       y1="630.30475"
       x1="218.11714"
       gradientUnits="userSpaceOnUse"
       id="linearGradient1429"
       xlink:href="#linearGradient162" />
    <linearGradient
       gradientTransform="scale(1.065499,0.938527)"
       y2="386.66583"
       x2="279.64313"
       y1="655.73102"
       x1="381.56607"
       gradientUnits="userSpaceOnUse"
       id="linearGradient1427"
       xlink:href="#linearGradient153" />
    <linearGradient
       gradientTransform="scale(1.011514,0.988617)"
       y2="737.41229"
       x2="212.5099"
       y1="657.11133"
       x1="236.25362"
       gradientUnits="userSpaceOnUse"
       id="linearGradient1425"
       xlink:href="#linearGradient162" />
    <linearGradient
       gradientTransform="scale(0.572667,1.746214)"
       y2="314.83911"
       x2="867.33453"
       y1="234.73897"
       x1="867.34546"
       gradientUnits="userSpaceOnUse"
       id="linearGradient1423"
       xlink:href="#linearGradient167" />
    <linearGradient
       gradientTransform="scale(0.571707,1.749147)"
       y2="331.44858"
       x2="411.2215"
       y1="242.94365"
       x1="411.2215"
       gradientUnits="userSpaceOnUse"
       id="linearGradient1421"
       xlink:href="#linearGradient167" />
    <linearGradient
       gradientTransform="scale(1.077001,0.928504)"
       y2="488.48251"
       x2="323.2514"
       y1="435.26761"
       x1="322.48257"
       gradientUnits="userSpaceOnUse"
       id="linearGradient1419"
       xlink:href="#linearGradient167" />
    <linearGradient
       gradientTransform="scale(1.074798,0.930408)"
       y2="614.50439"
       x2="321.32224"
       y1="498.17776"
       x1="320.75104"
       gradientUnits="userSpaceOnUse"
       id="linearGradient1417"
       xlink:href="#linearGradient138" />
    <linearGradient
       gradientTransform="scale(0.649784,1.538974)"
       y2="324.03815"
       x2="377.48541"
       y1="419.78485"
       x1="375.17325"
       gradientUnits="userSpaceOnUse"
       id="linearGradient1415"
       xlink:href="#linearGradient153" />
    <linearGradient
       gradientTransform="scale(0.812855,1.230232)"
       y2="394.10361"
       x2="437.57941"
       y1="528.87177"
       x1="437.57941"
       spreadMethod="reflect"
       gradientUnits="userSpaceOnUse"
       id="linearGradient1413"
       xlink:href="#linearGradient153" />
    <linearGradient
       gradientTransform="scale(0.816497,1.224744)"
       y2="281.32513"
       x2="387.06866"
       y1="242.28218"
       x1="389.63535"
       gradientUnits="userSpaceOnUse"
       id="linearGradient1411"
       xlink:href="#linearGradient167" />
    <linearGradient
       y2="281.01636"
       x2="376.79556"
       y1="240.92712"
       x1="379.09573"
       gradientTransform="scale(0.816497,1.224744)"
       gradientUnits="userSpaceOnUse"
       id="linearGradient1409"
       xlink:href="#linearGradient167" />
    <linearGradient
       gradientTransform="scale(0.816497,1.224744)"
       y2="245.68338"
       x2="380.5517"
       y1="277.495"
       x1="381.38742"
       gradientUnits="userSpaceOnUse"
       id="linearGradient1407"
       xlink:href="#linearGradient153" />
    <linearGradient
       y2="243.91606"
       x2="380.27319"
       y1="278.60202"
       x1="378.93771"
       gradientTransform="scale(0.816497,1.224744)"
       gradientUnits="userSpaceOnUse"
       id="linearGradient1405"
       xlink:href="#linearGradient153" />
    <linearGradient
       gradientTransform="scale(1.116071,0.896001)"
       y2="330.09561"
       x2="297.0856"
       y1="237.93179"
       x1="303.01761"
       gradientUnits="userSpaceOnUse"
       id="linearGradient1403"
       xlink:href="#linearGradient138" />
    <linearGradient
       gradientTransform="scale(0.575262,1.738339)"
       y2="304.07886"
       x2="400.84448"
       y1="369.53015"
       x1="400.57785"
       gradientUnits="userSpaceOnUse"
       id="linearGradient1401"
       xlink:href="#linearGradient153" />
    <radialGradient
       gradientUnits="userSpaceOnUse"
       r="195.07191"
       fy="1219.4125"
       fx="446.77762"
       cy="1219.4125"
       cx="446.77762"
       gradientTransform="scale(1.045233,0.956725)"
       id="radialGradient1399"
       xlink:href="#linearGradient172" />
    <linearGradient
       gradientUnits="objectBoundingBox"
       y2="-0.675295"
       x2="0.19452"
       y1="1.2934099"
       x1="0.94027299"
       id="linearGradient178"
       xlink:href="#linearGradient153" />
    <radialGradient
       id="radialGradient176"
       xlink:href="#linearGradient172" />
    <radialGradient
       gradientUnits="objectBoundingBox"
       r="0.5"
       fy="0.5"
       fx="0.5"
       cy="0.5"
       cx="0.5"
       id="radialGradient171"
       xlink:href="#linearGradient172" />
    <linearGradient
       gradientUnits="objectBoundingBox"
       y2="0.97005898"
       x2="0.50800002"
       y1="0.191616"
       x1="0.50000501"
       id="linearGradient166"
       xlink:href="#linearGradient162" />
    <linearGradient
       gradientUnits="objectBoundingBox"
       y2="0.98367399"
       x2="0.46399999"
       y1="0.51020199"
       x1="0.60399801"
       id="linearGradient165"
       xlink:href="#linearGradient162" />
    <linearGradient
       gradientUnits="objectBoundingBox"
       y2="0.98558098"
       x2="0.41209599"
       y1="0.34872901"
       x1="0.50086302"
       id="linearGradient161"
       xlink:href="#linearGradient162" />
    <linearGradient
       gradientUnits="objectBoundingBox"
       y2="0.096282303"
       x2="0.49215299"
       y1="0.87917101"
       x1="0.46201"
       id="linearGradient159"
       xlink:href="#linearGradient153" />
    <linearGradient
       gradientUnits="objectBoundingBox"
       y2="0.136172"
       x2="0.49843901"
       y1="0.85418499"
       x1="0.51730198"
       id="linearGradient158"
       xlink:href="#linearGradient153" />
    <linearGradient
       gradientUnits="objectBoundingBox"
       y2="0.41252401"
       x2="0.49482101"
       y1="1.15284"
       x1="0.49180499"
       id="linearGradient157"
       xlink:href="#linearGradient153" />
    <linearGradient
       gradientUnits="objectBoundingBox"
       y2="0.23093501"
       x2="0.453989"
       y1="0.98882002"
       x1="0.43568701"
       id="linearGradient156"
       xlink:href="#linearGradient153" />
    <linearGradient
       spreadMethod="reflect"
       gradientUnits="objectBoundingBox"
       y2="0.40625"
       x2="0.5"
       y1="0.89842999"
       x1="0.5"
       id="linearGradient152"
       xlink:href="#linearGradient153" />
    <linearGradient
       gradientUnits="objectBoundingBox"
       y2="1.02569"
       x2="0.487055"
       y1="0.022184599"
       x1="0.433979"
       id="linearGradient151"
       xlink:href="#linearGradient167" />
    <linearGradient
       gradientTransform="matrix(-0.928523,0.283938,0.435332,0.943857,-1.91327e-7,5.49908e-8)"
       gradientUnits="objectBoundingBox"
       y2="0.94191301"
       x2="0.156323"
       y1="0.099496603"
       x1="-0.30509499"
       id="linearGradient150"
       xlink:href="#linearGradient167" />
    <linearGradient
       gradientUnits="objectBoundingBox"
       y2="0.94634098"
       x2="0.50400001"
       y1="0.131707"
       x1="0.5"
       id="linearGradient149"
       xlink:href="#linearGradient138" />
    <linearGradient
       gradientUnits="objectBoundingBox"
       y2="0.92820501"
       x2="0.51599997"
       y1="0.37435901"
       x1="0.50799799"
       id="linearGradient148"
       xlink:href="#linearGradient167" />
    <linearGradient
       gradientUnits="objectBoundingBox"
       y2="0.8125"
       x2="0.5"
       y1="0.0234362"
       x1="0.5"
       id="linearGradient147"
       xlink:href="#linearGradient167" />
    <linearGradient
       gradientUnits="objectBoundingBox"
       y2="0.71875"
       x2="0.57143003"
       y1="0.023441499"
       x1="0.57152498"
       id="linearGradient146"
       xlink:href="#linearGradient167" />
    <linearGradient
       gradientUnits="objectBoundingBox"
       y2="0.75857902"
       x2="0.86741799"
       y1="-0.036155298"
       x1="0.46741399"
       id="linearGradient145"
       xlink:href="#linearGradient167" />
    <linearGradient
       gradientUnits="objectBoundingBox"
       y2="0.94063401"
       x2="0.64553201"
       y1="0.059404202"
       x1="0.70346397"
       id="linearGradient144"
       xlink:href="#linearGradient167" />
    <linearGradient
       gradientUnits="objectBoundingBox"
       y2="0.93366498"
       x2="0.41365999"
       y1="0.028819799"
       x1="0.46557701"
       id="linearGradient143"
       xlink:href="#linearGradient167" />
    <linearGradient
       gradientUnits="objectBoundingBox"
       y2="0.94531101"
       x2="0.553922"
       y1="0.031192999"
       x1="0.55880702"
       id="linearGradient142"
       xlink:href="#linearGradient167" />
    <linearGradient
       gradientUnits="objectBoundingBox"
       y2="0.90125799"
       x2="0.417539"
       y1="0.020191999"
       x1="0.47424799"
       id="linearGradient141"
       xlink:href="#linearGradient138" />
    <linearGradient
       id="linearGradient138">
      <stop
         id="stop139"
         offset="0"
         style="stop-color:#ffffff;stop-opacity:0.8;" />
      <stop
         id="stop140"
         offset="1"
         style="stop-color:#ffffff;stop-opacity:0;" />
    </linearGradient>
    <linearGradient
       id="linearGradient153">
      <stop
         id="stop154"
         offset="0"
         style="stop-color:#ffeed7;stop-opacity:1;" />
      <stop
         id="stop155"
         offset="1"
         style="stop-color:#bdbfc2;stop-opacity:1;" />
    </linearGradient>
    <linearGradient
       id="linearGradient162">
      <stop
         id="stop163"
         offset="0"
         style="stop-color:#ffa63f;stop-opacity:1;" />
      <stop
         id="stop164"
         offset="1"
         style="stop-color:#ffff00;stop-opacity:1;" />
    </linearGradient>
    <linearGradient
       id="linearGradient167">
      <stop
         id="stop168"
         offset="0"
         style="stop-color:#ffffff;stop-opacity:0.65;" />
      <stop
         id="stop169"
         offset="1"
         style="stop-color:#ffffff;stop-opacity:0;" />
    </linearGradient>
    <linearGradient
       id="linearGradient172">
      <stop
         id="stop173"
         offset="0"
         style="stop-color:#3f2600;stop-opacity:0.6;" />
      <stop
         id="stop174"
         offset="1"
         style="stop-color:#3f2600;stop-opacity:0;" />
    </linearGradient>
    <inkscape:perspective
       id="perspective3598"
       inkscape:persp3d-origin="312.5 : 250 : 1"
       inkscape:vp_z="625 : 375 : 1"
       inkscape:vp_y="0 : 1000 : 0"
       inkscape:vp_x="0 : 375 : 1"
       sodipodi:type="inkscape:persp3d" />
  </defs>
  <sodipodi:namedview
     inkscape:window-height="727"
     inkscape:window-width="1280"
     inkscape:pageshadow="2"
     inkscape:pageopacity="0.0"
     guidetolerance="10.0"
     gridtolerance="10.0"
     objecttolerance="10.0"
     borderopacity="1.0"
     bordercolor="#666666"
     pagecolor="#ffffff"
     id="base"
     inkscape:zoom="0.38080808"
     inkscape:cx="-79.623848"
     inkscape:cy="495"
     inkscape:window-x="0"
     inkscape:window-y="24"
     inkscape:current-layer="layer1"
     showgrid="false" />
  <g
     id="layer1"
     inkscape:groupmode="layer"
     inkscape:label="Layer 1">
    <path
       id="path2351"
       d="M 0.495,123.255 C 765.77278,123.255 764.38389,123.255 764.38389,123.255"
       style="fill:none;fill-rule:evenodd;stroke:#0000ff;stroke-width:0.99000001;stroke-linecap:butt;stroke-linejoin:miter;stroke-miterlimit:4;stroke-dasharray:none;stroke-opacity:1" />
    <path
       id="path4291"
       d="M 0.495,154.215 C 765.77278,154.215 764.38389,154.215 764.38389,154.215"
       style="fill:none;fill-rule:evenodd;stroke:#0000ff;stroke-width:0.99000001;stroke-linecap:butt;stroke-linejoin:miter;stroke-miterlimit:4;stroke-dasharray:none;stroke-opacity:1" />
    <path
       id="path4293"
       d="M 0.495,185.1075 C 765.77278,185.1075 764.38389,185.1075 764.38389,185.1075"
       style="fill:none;fill-rule:evenodd;stroke:#0000ff;stroke-width:0.99000001;stroke-linecap:butt;stroke-linejoin:miter;stroke-miterlimit:4;stroke-dasharray:none;stroke-opacity:1" />
    <path
       id="path4295"
       d="M 0.495,216.0675 C 765.77278,216.0675 764.38389,216.0675 764.38389,216.0675"
       style="fill:none;fill-rule:evenodd;stroke:#0000ff;stroke-width:0.99000001;stroke-linecap:butt;stroke-linejoin:miter;stroke-miterlimit:4;stroke-dasharray:none;stroke-opacity:1" />
    <path
       id="path4307"
       d="M 0.49499999,246.93555 C 765.77278,246.93555 764.38389,246.93555 764.38389,246.93555"
       style="fill:none;fill-rule:evenodd;stroke:#0000ff;stroke-width:0.99000001;stroke-linecap:butt;stroke-linejoin:miter;stroke-miterlimit:4;stroke-dasharray:none;stroke-opacity:1" />
    <path
       id="path4309"
       d="M 0.49499999,277.82805 C 765.77278,277.82805 764.38389,277.82805 764.38389,277.82805"
       style="fill:none;fill-rule:evenodd;stroke:#0000ff;stroke-width:0.99000001;stroke-linecap:butt;stroke-linejoin:miter;stroke-miterlimit:4;stroke-dasharray:none;stroke-opacity:1" />
    <path
       id="path4311"
       d="M 0.49499999,308.78805 C 765.77278,308.78805 764.38389,308.78805 764.38389,308.78805"
       style="fill:none;fill-rule:evenodd;stroke:#0000ff;stroke-width:0.99000001;stroke-linecap:butt;stroke-linejoin:miter;stroke-miterlimit:4;stroke-dasharray:none;stroke-opacity:1" />
    <path
       id="path4315"
       d="M 0.495,339.4843 C 765.77278,339.4843 764.38389,339.4843 764.38389,339.4843"
       style="fill:none;fill-rule:evenodd;stroke:#0000ff;stroke-width:0.99000001;stroke-linecap:butt;stroke-linejoin:miter;stroke-miterlimit:4;stroke-dasharray:none;stroke-opacity:1" />
    <path
       id="path4317"
       d="M 0.495,370.3768 C 765.77278,370.3768 764.38389,370.3768 764.38389,370.3768"
       style="fill:none;fill-rule:evenodd;stroke:#0000ff;stroke-width:0.99000001;stroke-linecap:butt;stroke-linejoin:miter;stroke-miterlimit:4;stroke-dasharray:none;stroke-opacity:1" />
    <path
       id="path4319"
       d="M 0.495,401.3368 C 765.77278,401.3368 764.38389,401.3368 764.38389,401.3368"
       style="fill:none;fill-rule:evenodd;stroke:#0000ff;stroke-width:0.99000001;stroke-linecap:butt;stroke-linejoin:miter;stroke-miterlimit:4;stroke-dasharray:none;stroke-opacity:1" />
    <path
       id="path4323"
       d="M 0.495,432.19264 C 765.77278,432.19264 764.38389,432.19264 764.38389,432.19264"
       style="fill:none;fill-rule:evenodd;stroke:#0000ff;stroke-width:0.99000001;stroke-linecap:butt;stroke-linejoin:miter;stroke-miterlimit:4;stroke-dasharray:none;stroke-opacity:1" />
    <path
       id="path4325"
       d="M 0.495,463.08514 C 765.77278,463.08514 764.38389,463.08514 764.38389,463.08514"
       style="fill:none;fill-rule:evenodd;stroke:#0000ff;stroke-width:0.99000001;stroke-linecap:butt;stroke-linejoin:miter;stroke-miterlimit:4;stroke-dasharray:none;stroke-opacity:1" />
    <path
       id="path4327"
       d="M 0.495,494.04514 C 765.77278,494.04514 764.38389,494.04514 764.38389,494.04514"
       style="fill:none;fill-rule:evenodd;stroke:#0000ff;stroke-width:0.99000001;stroke-linecap:butt;stroke-linejoin:miter;stroke-miterlimit:4;stroke-dasharray:none;stroke-opacity:1" />
    <path
       id="path4331"
       d="M 0.495,524.90098 C 765.77278,524.90098 764.38389,524.90098 764.38389,524.90098"
       style="fill:none;fill-rule:evenodd;stroke:#0000ff;stroke-width:0.99000001;stroke-linecap:butt;stroke-linejoin:miter;stroke-miterlimit:4;stroke-dasharray:none;stroke-opacity:1" />
    <path
       id="path4333"
       d="M 0.495,555.79348 C 765.77278,555.79348 764.38389,555.79348 764.38389,555.79348"
       style="fill:none;fill-rule:evenodd;stroke:#0000ff;stroke-width:0.99000001;stroke-linecap:butt;stroke-linejoin:miter;stroke-miterlimit:4;stroke-dasharray:none;stroke-opacity:1" />
    <path
       id="path4335"
       d="M 0.495,586.75348 C 765.77278,586.75348 764.38389,586.75348 764.38389,586.75348"
       style="fill:none;fill-rule:evenodd;stroke:#0000ff;stroke-width:0.99000001;stroke-linecap:butt;stroke-linejoin:miter;stroke-miterlimit:4;stroke-dasharray:none;stroke-opacity:1" />
    <path
       id="path4339"
       d="M 0.495,617.6093 C 765.77278,617.6093 764.38389,617.6093 764.38389,617.6093"
       style="fill:none;fill-rule:evenodd;stroke:#0000ff;stroke-width:0.99000001;stroke-linecap:butt;stroke-linejoin:miter;stroke-miterlimit:4;stroke-dasharray:none;stroke-opacity:1" />
    <path
       id="path4341"
       d="M 0.495,648.5018 C 765.77278,648.5018 764.38389,648.5018 764.38389,648.5018"
       style="fill:none;fill-rule:evenodd;stroke:#0000ff;stroke-width:0.99000001;stroke-linecap:butt;stroke-linejoin:miter;stroke-miterlimit:4;stroke-dasharray:none;stroke-opacity:1" />
    <path
       id="path4343"
       d="M 0.495,679.4618 C 765.77278,679.4618 764.38389,679.4618 764.38389,679.4618"
       style="fill:none;fill-rule:evenodd;stroke:#0000ff;stroke-width:0.99000001;stroke-linecap:butt;stroke-linejoin:miter;stroke-miterlimit:4;stroke-dasharray:none;stroke-opacity:1" />
    <path
       id="path4355"
       d="M 0.495,710.31763 C 765.77278,710.31763 764.38389,710.31763 764.38389,710.31763"
       style="fill:none;fill-rule:evenodd;stroke:#0000ff;stroke-width:0.99000001;stroke-linecap:butt;stroke-linejoin:miter;stroke-miterlimit:4;stroke-dasharray:none;stroke-opacity:1" />
    <path
       id="path4357"
       d="M 0.495,741.21013 C 765.77278,741.21013 764.38389,741.21013 764.38389,741.21013"
       style="fill:none;fill-rule:evenodd;stroke:#0000ff;stroke-width:0.99000001;stroke-linecap:butt;stroke-linejoin:miter;stroke-miterlimit:4;stroke-dasharray:none;stroke-opacity:1" />
    <path
       id="path4359"
       d="M 0.495,772.17013 C 765.77278,772.17013 764.38389,772.17013 764.38389,772.17013"
       style="fill:none;fill-rule:evenodd;stroke:#0000ff;stroke-width:0.99000001;stroke-linecap:butt;stroke-linejoin:miter;stroke-miterlimit:4;stroke-dasharray:none;stroke-opacity:1" />
    <path
       id="path4363"
       d="M 0.495,803.02597 C 765.77278,803.02597 764.38389,803.02597 764.38389,803.02597"
       style="fill:none;fill-rule:evenodd;stroke:#0000ff;stroke-width:0.99000001;stroke-linecap:butt;stroke-linejoin:miter;stroke-miterlimit:4;stroke-dasharray:none;stroke-opacity:1" />
    <path
       id="path4365"
       d="M 0.495,833.91847 C 765.77278,833.91847 764.38389,833.91847 764.38389,833.91847"
       style="fill:none;fill-rule:evenodd;stroke:#0000ff;stroke-width:0.99000001;stroke-linecap:butt;stroke-linejoin:miter;stroke-miterlimit:4;stroke-dasharray:none;stroke-opacity:1" />
    <path
       id="path4367"
       d="M 0.495,864.87847 C 765.77278,864.87847 764.38389,864.87847 764.38389,864.87847"
       style="fill:none;fill-rule:evenodd;stroke:#0000ff;stroke-width:0.99000001;stroke-linecap:butt;stroke-linejoin:miter;stroke-miterlimit:4;stroke-dasharray:none;stroke-opacity:1" />
    <path
       id="path4371"
       d="M 0.495,895.38709 C 765.77279,895.38709 764.3839,895.38709 764.3839,895.38709"
       style="fill:none;fill-rule:evenodd;stroke:#0000ff;stroke-width:0.99000001;stroke-linecap:butt;stroke-linejoin:miter;stroke-miterlimit:4;stroke-dasharray:none;stroke-opacity:1" />
    <path
       id="path4373"
       d="M 0.495,926.27959 C 765.77279,926.27959 764.3839,926.27959 764.3839,926.27959"
       style="fill:none;fill-rule:evenodd;stroke:#0000ff;stroke-width:0.99000001;stroke-linecap:butt;stroke-linejoin:miter;stroke-miterlimit:4;stroke-dasharray:none;stroke-opacity:1" />
    <path
       id="path4375"
       d="M 0.495,957.23959 C 765.77279,957.23959 764.3839,957.23959 764.3839,957.23959"
       style="fill:none;fill-rule:evenodd;stroke:#0000ff;stroke-width:0.99000001;stroke-linecap:butt;stroke-linejoin:miter;stroke-miterlimit:4;stroke-dasharray:none;stroke-opacity:1" />
    <path
       id="path4385"
       d="M 35.416667,1.3532806 C 35.416667,991.74205 35.416667,990.10504 35.416667,990.10504"
       style="fill:none;fill-rule:evenodd;stroke:#ff0000;stroke-width:1;stroke-linecap:butt;stroke-linejoin:miter;stroke-miterlimit:4;stroke-dasharray:none;stroke-opacity:1" />
    <g
       transform="matrix(0.4428106,0,0,0.1452626,85.560582,-4.7220696)"
       id="g1369">
      <path
         style="fill:url(#radialGradient1399);stroke:none;stroke-width:1pt;stroke-linecap:butt;stroke-linejoin:miter"
         id="path175"
         d="M 670.88202,1166.6423 C 670.88202,1269.7153 579.59489,1353.2725 466.98651,1353.2725 C 354.37813,1353.2725 263.091,1269.7153 263.091,1166.6423 C 263.091,1063.5693 354.37813,980.01214 466.98651,980.01214 C 579.59489,980.01214 670.88202,1063.5693 670.88202,1166.6423 z"
         transform="matrix(1.4177,0,0,0.414745,-38.7944,222.194)" />
      <path
         style="fill:#000000;stroke:none;stroke-width:1.25"
         d="M 223.627,632.24 C 201.239,600.017 196.873,495.256 249.114,430.81 C 275,399.892 281.604,378.345 283.645,349.417 C 285.034,316.438 260.32,217.975 353.528,210.473 C 447.934,202.941 442.864,296.133 442.321,345.448 C 441.87,387.088 472.895,410.689 494.117,443.143 C 533.396,502.773 530.074,605.443 486.718,661.015 C 431.801,730.583 384.765,700.413 353.528,702.945 C 295.035,706.147 293.101,737.336 223.627,632.24 z"
         id="path106"
         transform="matrix(1.25,0,0,1.25,185.454,-167.505)" />
      <path
         style="fill:url(#linearGradient1401);stroke:none;stroke-width:0.99464899"
         d="M 246.571,470.864 C 234.332,483.36 202.175,539.956 251.44,576.224 C 268.809,588.857 235.063,635.719 219.435,612.532 C 191.865,570.914 210.604,505.591 227.75,482.344 C 239.402,465.857 256.98,459.668 246.571,470.864 z"
         id="path113"
         transform="matrix(-1.67739,-2.24516e-2,-2.11236e-2,1.4709,1173.58,-293.017)" />
      <path
         style="fill:#000000;stroke:#000000;stroke-width:0.97729802"
         d="M 256.513,459.837 C 236.598,477.554 200.337,539.928 253.225,580.443 C 270.595,593.075 237.832,632.906 219.435,612.532 C 155.472,541.712 221.104,460.278 243.697,432.282 C 263.889,407.935 281.775,438.034 256.513,459.837 z"
         id="path111"
         transform="matrix(-1.67755,0,0,1.52374,1174.62,-318.082)" />
      <path
         style="fill:url(#linearGradient1403);stroke:none;stroke-width:1.26498997"
         id="path114"
         d="M 399.56879,258.15753 C 399.56879,284.03926 373.4342,305.02055 341.19556,305.02055 C 308.95692,305.02055 282.82233,284.03926 282.82233,258.15753 C 282.82233,232.2758 308.95692,211.29451 341.19556,211.29451 C 373.4342,211.29451 399.56879,232.2758 399.56879,258.15753 z"
         transform="matrix(1.26626,-7.13667e-2,-4.59795e-2,1.19574,202.143,-125.761)" />
      <path
         style="fill:url(#linearGradient1405);stroke:none;stroke-width:1.17873001"
         id="path115"
         d="M 328.86324,320.64151 C 328.86324,335.62566 320.7652,347.77271 310.77576,347.77271 C 300.78632,347.77271 292.68828,335.62566 292.68828,320.64151 C 292.68828,305.65736 300.78632,293.51031 310.77576,293.51031 C 320.7652,293.51031 328.86324,305.65736 328.86324,320.64151 z"
         transform="matrix(1.30445,-7.55326e-2,7.71251e-2,1.34257,144.757,-177.617)" />
      <path
         style="fill:url(#linearGradient1407);stroke:none;stroke-width:0.93138498"
         id="path116"
         d="M 328.86324,320.64151 C 328.86324,335.62566 320.7652,347.77271 310.77576,347.77271 C 300.78632,347.77271 292.68828,335.62566 292.68828,320.64151 C 292.68828,305.65736 300.78632,293.51031 310.77576,293.51031 C 320.7652,293.51031 328.86324,305.65736 328.86324,320.64151 z"
         transform="matrix(-1.81082,4.95107e-2,3.17324e-2,1.55333,1207.46,-284.777)" />
      <path
         style="fill:#000000;stroke:none;stroke-width:1.86495996"
         id="path117"
         d="M 328.86324,320.64151 C 328.86324,335.62566 320.7652,347.77271 310.77576,347.77271 C 300.78632,347.77271 292.68828,335.62566 292.68828,320.64151 C 292.68828,305.65736 300.78632,293.51031 310.77576,293.51031 C 320.7652,293.51031 328.86324,305.65736 328.86324,320.64151 z"
         transform="matrix(-0.823196,-1.76123e-3,-1.82321e-2,0.852662,913.674,-37.9902)" />
      <path
         style="fill:#000000;stroke:none;stroke-width:2.39814997"
         id="path118"
         d="M 328.86324,320.64151 C 328.86324,335.62566 320.7652,347.77271 310.77576,347.77271 C 300.78632,347.77271 292.68828,335.62566 292.68828,320.64151 C 292.68828,305.65736 300.78632,293.51031 310.77576,293.51031 C 320.7652,293.51031 328.86324,305.65736 328.86324,320.64151 z"
         transform="matrix(0.59438,-7.22959e-2,6.88176e-2,0.705838,367.448,32.4186)" />
      <path
         style="fill:url(#linearGradient1409);stroke:none;stroke-width:3.1916101"
         id="path121"
         d="M 328.86324,320.64151 C 328.86324,335.62566 320.7652,347.77271 310.77576,347.77271 C 300.78632,347.77271 292.68828,335.62566 292.68828,320.64151 C 292.68828,305.65736 300.78632,293.51031 310.77576,293.51031 C 320.7652,293.51031 328.86324,305.65736 328.86324,320.64151 z"
         transform="matrix(-0.480323,-3.6454e-2,-4.67935e-2,0.475606,813.496,87.0124)" />
      <path
         style="fill:url(#linearGradient1411);stroke:none;stroke-width:4.12025976"
         id="path122"
         d="M 328.86324,320.64151 C 328.86324,335.62566 320.7652,347.77271 310.77576,347.77271 C 300.78632,347.77271 292.68828,335.62566 292.68828,320.64151 C 292.68828,305.65736 300.78632,293.51031 310.77576,293.51031 C 320.7652,293.51031 328.86324,305.65736 328.86324,320.64151 z"
         transform="matrix(0.35691,-4.08211e-2,4.13232e-2,0.398544,449.334,114.991)" />
      <path
         style="fill:url(#linearGradient1413);stroke:none;stroke-width:1.25"
         d="M 258.702,495.425 C 271.538,466.322 298.816,415.199 299.397,375.667 C 299.397,344.225 393.576,336.716 401.134,368.109 C 408.692,399.502 427.875,446.592 440.084,469.265 C 452.292,491.937 487.893,563.96 449.968,626.811 C 415.811,682.455 312.243,726.477 256.958,619.254 C 238.355,582.047 241.673,535.939 258.702,495.425 z"
         id="path128"
         transform="matrix(1.25,0,0,1.25,185.454,-168.23)" />
      <path
         style="fill:url(#linearGradient1415);stroke:none;stroke-width:1.15804005"
         d="M 242.905,473.815 C 231.642,492.782 207.405,543.124 255.042,575.862 C 306.353,610.682 301.515,672.924 239.435,637.817 C 182.658,606.028 216.59,500.039 234.925,475.551 C 247.032,458.337 264.822,437.52 242.905,473.815 z"
         id="path112"
         transform="matrix(1.38936,-0.111074,0.102211,1.30214,108.413,-165.938)" />
      <path
         style="fill:#000000;stroke:#000000;stroke-width:1.25"
         d="M 256.513,449.72 C 239.048,478.228 197.136,545.533 253.225,580.443 C 328.794,626.798 307.398,673.154 238.426,631.417 C 141.317,573.153 226.601,455.801 265.557,411.079 C 310.001,360.879 274.111,420.166 256.513,449.72 z"
         id="path109"
         transform="matrix(1.25,0,0,1.25,185.454,-167.505)" />
      <path
         transform="matrix(1.30209,0,0,1.22525,170.042,-153.557)"
         style="font-size:12px;fill:url(#linearGradient1417);stroke:none;stroke-width:1.23705006;stroke-dasharray:none"
         d="M 421.481,504.727 C 421.481,537.139 392.209,579.243 341.953,578.865 C 290.125,579.32 268.004,537.139 268.004,504.727 C 268.004,472.315 302.383,446.01 344.743,446.01 C 387.102,446.01 421.481,472.315 421.481,504.727 z"
         id="path125" />
      <path
         transform="matrix(1.1868,0,0,1.06708,210.623,-100.078)"
         style="font-size:12px;fill:url(#linearGradient1419);stroke:none;stroke-width:1.38846004;stroke-dasharray:none"
         d="M 398.227,412.292 C 397.615,450.864 375.047,459.963 346.487,459.963 C 317.926,459.963 297.195,454.269 294.746,412.292 C 294.746,385.978 317.926,370.75 346.487,370.75 C 375.047,370.75 398.227,385.978 398.227,412.292 z"
         id="path127" />
      <path
         style="fill:url(#linearGradient1421);stroke:none;stroke-width:1.25"
         d="M 234.285,456.475 C 252.001,429.479 289.3,388.111 241.262,462.288 C 202.311,523.331 226.859,562.561 239.518,573.327 C 276.045,605.889 274.484,627.676 245.913,610.533 C 184.288,573.907 197.078,512.285 234.285,456.475 z"
         id="path129"
         transform="matrix(1.25,0,0,1.25,185.454,-167.505)" />
      <path
         style="fill:url(#linearGradient1423);stroke:none;stroke-width:1.25"
         d="M 490.662,467.52 C 475.343,435.819 426.528,355.618 492.988,448.917 C 553.449,533.214 511.01,591.93 503.452,597.744 C 495.895,603.557 470.315,615.184 477.873,594.837 C 485.43,574.49 523.107,535.864 490.662,467.52 z"
         id="path131"
         transform="matrix(1.25,0,0,1.25,185.454,-167.505)" />
      <path
         style="fill:url(#linearGradient1425);stroke:#e68c3f;stroke-width:6.25"
         d="M 220.915,716.921 C 180.473,695.505 121.663,721.045 143.013,662.855 C 147.289,649.617 136.638,629.847 143.594,616.929 C 151.733,601.231 169.174,604.72 179.639,594.255 C 189.957,583.364 196.498,564.606 215.683,567.513 C 234.867,570.42 247.628,593.974 261.027,622.742 C 270.91,643.38 305.968,672.406 303.677,695.5 C 300.981,731 260.65,737.69 220.915,716.921 z"
         id="path132"
         transform="matrix(1.25,0,0,1.25,185.454,-167.505)" />
      <path
         transform="matrix(0.598206,0.268584,-0.239623,0.617213,700.568,140.464)"
         style="font-size:12px;fill:url(#linearGradient1427);stroke:none;stroke-width:2.85509992;stroke-dasharray:none"
         d="M 415.072,495.764 C 412.065,520.67 379.259,572.391 345.554,577.298 C 311.294,582.634 279.122,543.238 271.407,506.184 C 261.518,464.978 293.994,448.584 343.345,449.557 C 396.646,451.211 417.466,463.448 415.072,495.764 z"
         id="path177" />
      <path
         style="fill:url(#linearGradient1429);stroke:#e68c3f;stroke-width:6.25067997"
         d="M 220.274,718.402 C 178.947,694.812 120.38,724.007 143.013,662.855 C 147.749,649.787 136.417,629.303 143.373,616.385 C 151.512,600.687 169.174,604.72 179.639,594.255 C 189.957,583.364 198.466,566.387 217.651,569.294 C 236.835,572.201 247.628,593.974 261.027,622.742 C 270.91,643.38 304.442,671.713 302.151,694.807 C 299.455,730.307 259.427,740.278 220.274,718.402 z"
         id="path133"
         transform="matrix(-1.1685,0.423145,0.475283,1.16478,728.343,-213.821)" />
      <path
         style="fill:url(#linearGradient1431);stroke:none;stroke-width:1.52532005"
         d="M 216.482,675.68 C 129.951,618.177 169.174,604.72 179.639,594.255 C 189.957,583.364 198.466,566.387 217.651,569.294 C 236.835,572.201 247.628,593.974 261.027,622.742 C 270.91,643.38 304.087,671.66 302.151,694.807 C 299.535,721.917 253.961,700.294 216.482,675.68 z"
         id="path134"
         transform="matrix(-0.945096,0.343745,0.424076,0.956058,714.328,-64.342)" />
      <path
         style="fill:url(#linearGradient1433);stroke:none;stroke-width:1.52532005"
         d="M 216.506,677.071 C 129.975,619.568 169.709,603.501 182.56,595.791 C 197.959,585.849 197.718,564.96 216.903,567.867 C 236.087,570.774 247.628,593.974 261.027,622.742 C 270.91,643.38 304.087,671.66 302.151,694.807 C 299.535,721.917 253.985,701.685 216.506,677.071 z"
         id="path135"
         transform="matrix(1.00431,-5.2286e-2,-1.74e-2,1.04575,244.191,-28.4653)" />
      <path
         transform="matrix(0.515584,0.215259,-0.206526,0.49467,713.3,222.559)"
         style="font-size:12px;fill:#000000;stroke:none;stroke-width:2.85509992"
         d="M 415.072,495.764 C 412.065,520.67 379.259,572.391 345.554,577.298 C 311.294,582.634 279.122,543.238 271.407,506.184 C 261.518,464.978 293.994,448.584 343.345,449.557 C 396.646,451.211 417.466,463.448 415.072,495.764 z"
         id="path136" />
      <path
         transform="matrix(0.351231,0.149463,-0.128856,0.343469,724.522,318.291)"
         style="font-size:12px;fill:url(#linearGradient1435);stroke:none;stroke-width:2.85509992"
         d="M 415.072,495.764 C 412.065,520.67 379.259,572.391 345.554,577.298 C 311.294,582.634 279.122,543.238 271.407,506.184 C 261.518,464.978 293.994,448.584 343.345,449.557 C 396.646,451.211 417.466,463.448 415.072,495.764 z"
         id="path137" />
      <path
         style="fill:url(#linearGradient1437);stroke:#e68c3f;stroke-width:3.75"
         d="M 309.954,338.729 C 317.101,331.959 334.765,311.663 367.915,332.974 C 374.077,336.984 379.077,337.351 390.936,342.429 C 414.662,352.178 403.318,375.688 378.192,383.537 C 367.434,387.026 357.656,400.093 338.063,398.976 C 321.329,397.999 316.944,387.102 306.665,381.07 C 288.396,370.759 285.7,356.816 295.565,349.417 C 305.431,342.018 309.29,339.358 309.954,338.729 z"
         id="path119"
         transform="matrix(1.25,0,0,1.25,185.454,-167.505)" />
      <path
         style="fill:none;stroke:#e68c3f;stroke-width:2.5"
         d="M 391.251,357.645 C 381.368,358.226 359.858,379.736 337.185,379.736 C 314.512,379.736 301.141,358.807 297.653,358.807"
         id="path120"
         transform="matrix(1.25,0,0,1.25,185.454,-167.505)" />
      <path
         style="fill:url(#linearGradient1439);stroke:none"
         d="M 309.954,338.729 C 317.101,331.959 339.645,313.381 369.542,332.401 C 375.841,336.167 382.346,340.266 392.02,345.865 C 411.182,357.613 401.691,374.543 378.734,385.255 C 368.316,389.75 351.141,399.67 338.063,398.976 C 323.53,397.568 314.128,387.577 304.496,381.07 C 286.826,368.767 287.899,358.833 296.107,350.562 C 302.312,344.883 309.29,339.358 309.954,338.729 z"
         id="path123"
         transform="matrix(0.627885,0,0,0.595666,392.366,51.8173)" />
    </g>
  </g>
</svg>
